<svg width="900" height="620" viewBox="0 0 900 620" fill="none" xmlns="http://www.w3.org/2000/svg" role="img" aria-label="Premium VR headset illustration">
  <defs>
    <linearGradient id="g0" x1="140" y1="70" x2="760" y2="560" gradientUnits="userSpaceOnUse">
      <stop stop-color="#0EA5A8"/>
      <stop offset="0.55" stop-color="#0B6E75"/>
      <stop offset="1" stop-color="#063D41"/>
    </linearGradient>
    <linearGradient id="g1" x1="160" y1="120" x2="720" y2="520" gradientUnits="userSpaceOnUse">
      <stop stop-color="#FFFDF9" stop-opacity="0.92"/>
      <stop offset="1" stop-color="#F7F1E6" stop-opacity="0.55"/>
    </linearGradient>
    <radialGradient id="glow" cx="0" cy="0" r="1" gradientUnits="userSpaceOnUse" gradientTransform="translate(460 280) rotate(90) scale(260 320)">
      <stop stop-color="#0EA5A8" stop-opacity="0.22"/>
      <stop offset="1" stop-color="#0EA5A8" stop-opacity="0"/>
    </radialGradient>
    <filter id="shadow" x="0" y="0" width="900" height="620" filterUnits="userSpaceOnUse" color-interpolation-filters="sRGB">
      <feDropShadow dx="0" dy="40" stdDeviation="40" flood-color="#14120F" flood-opacity="0.16"/>
      <feDropShadow dx="0" dy="18" stdDeviation="16" flood-color="#0B6E75" flood-opacity="0.14"/>
    </filter>
  </defs>

  <!-- Ambient glow -->
  <ellipse cx="460" cy="290" rx="320" ry="260" fill="url(#glow)"/>

  <!-- Orb ring -->
  <circle cx="460" cy="290" r="210" stroke="#0EA5A8" stroke-opacity="0.12" stroke-width="2"/>
  <circle cx="460" cy="290" r="250" stroke="#0EA5A8" stroke-opacity="0.07" stroke-width="2" stroke-dasharray="6 10"/>

  <!-- Headset body -->
  <g filter="url(#shadow)">
    <path d="M250 280c0-86 70-156 156-156h108c86 0 156 70 156 156v46c0 72-58 130-130 130H380c-72 0-130-58-130-130v-46Z" fill="url(#g0)"/>
    <path d="M286 288c0-64 52-116 116-116h116c64 0 116 52 116 116v28c0 56-46 102-102 102H388c-56 0-102-46-102-102v-28Z" fill="rgba(0,0,0,0.18)"/>
    <path d="M288 248c18-44 62-76 114-76h116c52 0 96 32 114 76" stroke="rgba(255,255,255,0.32)" stroke-width="2" stroke-linecap="round"/>
    <path d="M324 210h272c28 0 50 22 50 50v62c0 44-36 80-80 80H334c-44 0-80-36-80-80v-62c0-28 22-50 50-50Z" fill="url(#g1)" stroke="rgba(255,255,255,0.14)"/>

    <!-- Lenses -->
    <path d="M348 276c0-22 18-40 40-40h64c22 0 40 18 40 40v34c0 22-18 40-40 40h-64c-22 0-40-18-40-40v-34Z" fill="rgba(20,18,15,0.12)"/>
    <path d="M508 276c0-22 18-40 40-40h64c22 0 40 18 40 40v34c0 22-18 40-40 40h-64c-22 0-40-18-40-40v-34Z" fill="rgba(20,18,15,0.12)"/>
    <path d="M388 252h64" stroke="rgba(255,255,255,0.55)" stroke-width="3" stroke-linecap="round"/>
    <path d="M548 252h64" stroke="rgba(255,255,255,0.55)" stroke-width="3" stroke-linecap="round"/>

    <!-- Strap hints -->
    <path d="M250 300c-46 18-76 58-76 104v18" stroke="rgba(14,165,168,0.38)" stroke-width="8" stroke-linecap="round"/>
    <path d="M670 300c46 18 76 58 76 104v18" stroke="rgba(14,165,168,0.38)" stroke-width="8" stroke-linecap="round"/>
  </g>
</svg>

