<svg width="900" height="620" viewBox="0 0 900 620" fill="none" xmlns="http://www.w3.org/2000/svg" role="img" aria-label="Lightweight VR glasses product image">
  <defs>
    <linearGradient id="bg" x1="140" y1="60" x2="760" y2="560" gradientUnits="userSpaceOnUse">
      <stop stop-color="#FFFDFA"/>
      <stop offset="1" stop-color="#F7F1E6"/>
    </linearGradient>
    <linearGradient id="frame" x1="220" y1="240" x2="680" y2="380" gradientUnits="userSpaceOnUse">
      <stop stop-color="#0B6E75" stop-opacity="0.95"/>
      <stop offset="1" stop-color="#063D41" stop-opacity="1"/>
    </linearGradient>
    <filter id="ds" x="0" y="0" width="900" height="620" filterUnits="userSpaceOnUse" color-interpolation-filters="sRGB">
      <feDropShadow dx="0" dy="28" stdDeviation="28" flood-color="#14120F" flood-opacity="0.14"/>
    </filter>
  </defs>

  <rect x="0" y="0" width="900" height="620" rx="44" fill="url(#bg)"/>
  <path d="M120 160c120-90 260-120 420-90s220 120 240 210" stroke="#0EA5A8" stroke-opacity="0.10" stroke-width="26" stroke-linecap="round"/>

  <g filter="url(#ds)">
    <path d="M220 300c0-22 18-40 40-40h140c22 0 40 18 40 40v30c0 22-18 40-40 40H260c-22 0-40-18-40-40v-30Z" fill="url(#frame)"/>
    <path d="M520 300c0-22 18-40 40-40h140c22 0 40 18 40 40v30c0 22-18 40-40 40H560c-22 0-40-18-40-40v-30Z" fill="url(#frame)"/>
    <path d="M440 318h80" stroke="rgba(14,165,168,0.65)" stroke-width="10" stroke-linecap="round"/>
    <path d="M260 300h140" fill="none" stroke="rgba(255,255,255,0.22)" stroke-width="2"/>
    <path d="M560 300h140" fill="none" stroke="rgba(255,255,255,0.22)" stroke-width="2"/>
    <path d="M220 318c-54 0-98 22-124 58" stroke="rgba(11,110,117,0.30)" stroke-width="10" stroke-linecap="round"/>
    <path d="M740 318c54 0 98 22 124 58" stroke="rgba(11,110,117,0.30)" stroke-width="10" stroke-linecap="round"/>
  </g>
</svg>

