<svg width="900" height="620" viewBox="0 0 900 620" fill="none" xmlns="http://www.w3.org/2000/svg" role="img" aria-label="Clinician control hub product image">
  <defs>
    <linearGradient id="bg" x1="120" y1="60" x2="780" y2="560" gradientUnits="userSpaceOnUse">
      <stop stop-color="#FFFDFA"/>
      <stop offset="1" stop-color="#F7F1E6"/>
    </linearGradient>
    <linearGradient id="card" x1="250" y1="150" x2="650" y2="480" gradientUnits="userSpaceOnUse">
      <stop stop-color="#0EA5A8" stop-opacity="0.22"/>
      <stop offset="1" stop-color="#0B6E75" stop-opacity="0.10"/>
    </linearGradient>
    <filter id="ds" x="0" y="0" width="900" height="620" filterUnits="userSpaceOnUse" color-interpolation-filters="sRGB">
      <feDropShadow dx="0" dy="34" stdDeviation="34" flood-color="#14120F" flood-opacity="0.14"/>
      <feDropShadow dx="0" dy="16" stdDeviation="14" flood-color="#0B6E75" flood-opacity="0.10"/>
    </filter>
  </defs>

  <rect x="0" y="0" width="900" height="620" rx="44" fill="url(#bg)"/>
  <circle cx="170" cy="160" r="150" fill="#0EA5A8" fill-opacity="0.08"/>
  <circle cx="730" cy="500" r="190" fill="#0B6E75" fill-opacity="0.05"/>

  <g filter="url(#ds)">
    <rect x="210" y="140" width="480" height="340" rx="34" fill="rgba(255,253,250,0.75)" stroke="rgba(20,18,15,0.10)"/>
    <rect x="240" y="170" width="420" height="64" rx="20" fill="url(#card)" stroke="rgba(14,165,168,0.22)"/>
    <rect x="240" y="254" width="260" height="92" rx="24" fill="rgba(20,18,15,0.06)"/>
    <rect x="520" y="254" width="140" height="92" rx="24" fill="rgba(14,165,168,0.12)"/>
    <rect x="240" y="366" width="420" height="84" rx="24" fill="rgba(20,18,15,0.06)"/>
    <path d="M270 204h180" stroke="rgba(20,18,15,0.55)" stroke-width="6" stroke-linecap="round"/>
    <path d="M270 220h140" stroke="rgba(20,18,15,0.35)" stroke-width="6" stroke-linecap="round"/>
    <circle cx="630" cy="202" r="16" fill="#0EA5A8" fill-opacity="0.86"/>
    <circle cx="590" cy="202" r="8" fill="rgba(20,18,15,0.18)"/>
    <circle cx="560" cy="202" r="8" fill="rgba(20,18,15,0.18)"/>
  </g>
</svg>

