<svg width="900" height="620" viewBox="0 0 900 620" fill="none" xmlns="http://www.w3.org/2000/svg" role="img" aria-label="VR headset product image">
  <defs>
    <linearGradient id="bg" x1="120" y1="60" x2="780" y2="560" gradientUnits="userSpaceOnUse">
      <stop stop-color="#FFFDFA"/>
      <stop offset="1" stop-color="#F7F1E6"/>
    </linearGradient>
    <linearGradient id="metal" x1="220" y1="160" x2="720" y2="460" gradientUnits="userSpaceOnUse">
      <stop stop-color="#0EA5A8" stop-opacity="0.92"/>
      <stop offset="0.55" stop-color="#0B6E75" stop-opacity="0.96"/>
      <stop offset="1" stop-color="#063D41" stop-opacity="1"/>
    </linearGradient>
    <filter id="ds" x="0" y="0" width="900" height="620" filterUnits="userSpaceOnUse" color-interpolation-filters="sRGB">
      <feDropShadow dx="0" dy="30" stdDeviation="30" flood-color="#14120F" flood-opacity="0.14"/>
    </filter>
  </defs>

  <rect x="0" y="0" width="900" height="620" rx="44" fill="url(#bg)"/>
  <circle cx="720" cy="120" r="160" fill="#0EA5A8" fill-opacity="0.08"/>
  <circle cx="210" cy="500" r="190" fill="#0B6E75" fill-opacity="0.06"/>

  <g filter="url(#ds)">
    <path d="M250 300c0-80 65-145 145-145h110c80 0 145 65 145 145v38c0 66-54 120-120 120H370c-66 0-120-54-120-120v-38Z" fill="url(#metal)"/>
    <path d="M292 304c0-56 46-102 102-102h112c56 0 102 46 102 102v18c0 50-40 90-90 90H382c-50 0-90-40-90-90v-18Z" fill="rgba(255,255,255,0.55)"/>
    <path d="M360 260h84c18 0 32 14 32 32v24c0 18-14 32-32 32h-84c-18 0-32-14-32-32v-24c0-18 14-32 32-32Z" fill="rgba(20,18,15,0.10)"/>
    <path d="M540 260h84c18 0 32 14 32 32v24c0 18-14 32-32 32h-84c-18 0-32-14-32-32v-24c0-18 14-32 32-32Z" fill="rgba(20,18,15,0.10)"/>
    <path d="M248 325c-52 14-90 56-90 108v8" stroke="rgba(14,165,168,0.35)" stroke-width="10" stroke-linecap="round"/>
    <path d="M652 325c52 14 90 56 90 108v8" stroke="rgba(14,165,168,0.35)" stroke-width="10" stroke-linecap="round"/>
  </g>
</svg>

